<svg width="50" height="50" viewBox="0 0 50 50" fill="none" xmlns="http://www.w3.org/2000/svg">
<rect width="50" height="50" rx="10" fill="#5E55D7"/>
<path d="M18.628 19.592C20.036 19.592 21.204 19.9547 22.132 20.68C23.06 21.4053 23.6733 22.392 23.972 23.64H21.604C21.3587 23.032 20.9747 22.552 20.452 22.2C19.94 21.848 19.3213 21.672 18.596 21.672C17.9987 21.672 17.46 21.8213 16.98 22.12C16.5 22.4187 16.1267 22.8453 15.86 23.4C15.5933 23.9547 15.46 24.6053 15.46 25.352C15.46 26.088 15.5933 26.7333 15.86 27.288C16.1267 27.8427 16.5 28.2693 16.98 28.568C17.46 28.8667 17.9987 29.016 18.596 29.016C19.3213 29.016 19.94 28.84 20.452 28.488C20.9747 28.136 21.3587 27.656 21.604 27.048H23.972C23.6733 28.296 23.06 29.2827 22.132 30.008C21.204 30.7333 20.036 31.096 18.628 31.096C17.5507 31.096 16.596 30.856 15.764 30.376C14.9427 29.8853 14.3027 29.2027 13.844 28.328C13.396 27.4533 13.172 26.4613 13.172 25.352C13.172 24.232 13.396 23.2347 13.844 22.36C14.3027 21.4853 14.9427 20.808 15.764 20.328C16.5853 19.8373 17.54 19.592 18.628 19.592ZM30.8966 19.592C32.2726 19.592 33.414 19.9333 34.3206 20.616C35.2273 21.288 35.8086 22.2 36.0646 23.352H33.6966C33.4726 22.84 33.1153 22.4347 32.6246 22.136C32.1446 21.8267 31.574 21.672 30.9126 21.672C30.262 21.672 29.686 21.8213 29.1846 22.12C28.6833 22.4187 28.294 22.8453 28.0166 23.4C27.7393 23.9547 27.6006 24.6053 27.6006 25.352C27.6006 26.536 27.9153 27.4587 28.5446 28.12C29.1846 28.7813 30.054 29.112 31.1526 29.112C31.9633 29.112 32.6566 28.872 33.2326 28.392C33.8193 27.912 34.198 27.2453 34.3686 26.392H30.5446V24.776H36.2566V26.952C36.0966 27.6987 35.782 28.3867 35.3126 29.016C34.854 29.6453 34.246 30.152 33.4886 30.536C32.742 30.9093 31.8833 31.096 30.9126 31.096C29.8033 31.096 28.822 30.856 27.9686 30.376C27.126 29.8853 26.47 29.208 26.0006 28.344C25.542 27.4693 25.3126 26.472 25.3126 25.352C25.3126 24.232 25.542 23.24 26.0006 22.376C26.47 21.5013 27.126 20.8187 27.9686 20.328C28.8113 19.8373 29.7873 19.592 30.8966 19.592Z" fill="white"/>
</svg>
