<svg width="30" height="30" viewBox="0 0 30 30" fill="none" xmlns="http://www.w3.org/2000/svg">
<rect width="30" height="30" rx="15" fill="#5E55D7"/>
<path d="M22.5 9.63751V18.555C22.5 19.2825 21.9075 19.95 21.18 20.04L20.9475 20.07C19.7175 20.235 17.985 20.745 16.59 21.33C16.1025 21.5325 15.5625 21.165 15.5625 20.6325V10.2C15.5625 9.92251 15.72 9.66751 15.9675 9.53251C17.34 8.79001 19.4175 8.13001 20.8275 8.01001H20.8725C21.7725 8.01001 22.5 8.73751 22.5 9.63751Z" fill="white"/>
<path d="M11.4376 11.305H9.75005C9.16641 11.305 8.68755 11.7839 8.68755 12.3675C8.68755 12.963 9.17077 13.43 9.75005 13.43H11.4376C12.0168 13.43 12.5001 12.963 12.5001 12.3675C12.5001 11.7839 12.0212 11.305 11.4376 11.305ZM9.75005 15.68H12.0001C12.5793 15.68 13.0626 15.213 13.0626 14.6175C13.0626 14.0339 12.5837 13.555 12.0001 13.555H9.75005C9.16641 13.555 8.68755 14.0339 8.68755 14.6175C8.68755 15.213 9.17077 15.68 9.75005 15.68Z" fill="white" stroke="white"/>
</svg>
