<svg width="30" height="30" viewBox="0 0 30 30" fill="none" xmlns="http://www.w3.org/2000/svg">
<rect width="30" height="30" rx="15" fill="#5E55D7"/>
<path d="M13.785 15.2575H13.285V15.265H13.271C13.8817 14.8489 14.8475 14.172 14.8475 12.87C14.8475 11.5814 13.8061 10.54 12.5175 10.54C11.2275 10.54 10.1875 11.5902 10.1875 12.87C10.1875 13.4536 10.6664 13.9325 11.25 13.9325C11.331 13.9325 11.4099 13.9233 11.4859 13.9058C11.0324 14.2529 10.5564 14.7214 10.3248 15.4296L10.3246 15.4295L10.3211 15.4413C10.1893 15.8807 10.2527 16.3598 10.5384 16.7495C10.8268 17.1477 11.2841 17.3825 11.775 17.3825H13.785C14.3686 17.3825 14.8475 16.9036 14.8475 16.32C14.8475 15.7364 14.3686 15.2575 13.785 15.2575ZM12.1421 13.4448C12.2498 13.2787 12.3125 13.0812 12.3125 12.87C12.3125 12.7422 12.4099 12.6575 12.51 12.6575C12.6239 12.6575 12.715 12.7486 12.715 12.8625C12.715 12.9229 12.702 12.9782 12.6077 13.0779C12.5121 13.1792 12.3669 13.2898 12.1421 13.4448ZM14.6652 15.5513L14.6652 15.5513L14.6679 15.5557C14.9441 16.0199 15.4436 16.31 15.99 16.31H15.99H15.9901H15.9901H15.9902H15.9902H15.9903H15.9903H15.9903H15.9904H15.9904H15.9905H15.9905H15.9906H15.9906H15.9906H15.9907H15.9907H15.9908H15.9908H15.9908H15.9909H15.9909H15.991H15.991H15.991H15.9911H15.9911H15.9912H15.9912H15.9912H15.9913H15.9913H15.9914H15.9914H15.9914H15.9915H15.9915H15.9915H15.9916H15.9916H15.9917H15.9917H15.9917H15.9918H15.9918H15.9918H15.9919H15.9919H15.992H15.992H15.992H15.9921H15.9921H15.9921H15.9922H15.9922H15.9922H15.9923H15.9923H15.9923H15.9924H15.9924H15.9924H15.9925H15.9925H15.9925H15.9926H15.9926H15.9926H15.9927H15.9927H15.9927H15.9928H15.9928H15.9928H15.9929H15.9929H15.9929H15.993H15.993H15.993H15.9931H15.9931H15.9931H15.9931H15.9932H15.9932H15.9932H15.9933H15.9933H15.9933H15.9934H15.9934H15.9934H15.9934H15.9935H15.9935H15.9935H15.9936H15.9936H15.9936H15.9936H15.9937H15.9937H15.9937H15.9938H15.9938H15.9938H15.9938H15.9939H15.9939H15.9939H15.994H15.994H15.994H15.994H15.9941H15.9941H15.9941H15.9941H15.9942H15.9942H15.9942H15.9942H15.9943H15.9943H15.9943H15.9943H15.9944H15.9944H15.9944H15.9944H15.9945H15.9945H15.9945H15.9945H15.9946H15.9946H15.9946H15.9946H15.9946H15.9947H15.9947H15.9947H15.9947H15.9948H15.9948H15.9948H15.9948H15.9948H15.9949H15.9949H15.9949H15.9949H15.995H15.995H15.995H15.995H15.995H15.9951H15.9951H15.9951H15.9951H15.9951H15.9952H15.9952H15.9952H15.9952H15.9952H15.9953H15.9953H15.9953H15.9953H15.9953H15.9954H15.9954H15.9954H15.9954H15.9954H15.9955H15.9955H15.9955H15.9955H15.9955H15.9955H15.9956H15.9956H15.9956H15.9956H15.9956H15.9957H15.9957H15.9957H15.9957H15.9957H15.9957H15.9958H15.9958H15.9958H15.9958H15.9958H15.9958H15.9959H15.9959H15.9959H15.9959H15.9959H15.9959H15.9959H15.996H15.996H15.996H15.996H15.996H15.996H15.9961H15.9961H15.9961H15.9961H15.9961H15.9961H15.9961H15.9962H15.9962H15.9962H15.9962H15.9962H15.9962H15.9962H15.9962H15.9963H15.9963H15.9963H15.9963H15.9963H15.9963H15.9963H15.9964H15.9964H15.9964H15.9964H15.9964H15.9964H15.9964H15.9964H15.9964H15.9965H15.9965H15.9965H15.9965H15.9965H15.9965H15.9965H15.9965H15.9966H15.9966H15.9966H15.9966H15.9966H15.9966H15.9966H15.9966H15.9966H15.9966H15.9967H15.9967H15.9967H15.9967H15.9967H15.9967H15.9967H15.9967H15.9967H15.9967H15.9968H15.9968H15.9968H15.9968H15.9968H15.9968H15.9968H15.9968H15.9968H15.9968H15.9968H15.9969H15.9969H15.9969H15.9969H15.9969H15.9969H15.9969H15.9969H15.9969H15.9969H15.9969H15.9969H15.997H15.997H15.997H15.997H15.997H15.997H15.997H15.997H15.997H15.997H15.997H15.997H15.9971H15.9971H15.9971H15.9971H15.9971H15.9971H15.9971H15.9971H15.9972H15.9972H15.9972H15.9972H15.9972H15.9972H15.9972H15.9972H15.9972H15.9972H15.9973H15.9973H15.9973H15.9973H15.9973H15.9973H15.9973H15.9973H15.9973H15.9973H15.9973H15.9973H15.9974H15.9974H15.9974H15.9974H15.9974H15.9974H15.9974H15.9974H15.9974H15.9974H15.9974H15.9974H15.9975H15.9975H15.9975H15.9975H15.9975H15.9975H15.9975H16.9675V16.3275C16.9675 16.9111 17.4464 17.39 18.03 17.39C18.6136 17.39 19.0925 16.9111 19.0925 16.3275V16.2534C19.506 16.1127 19.8125 15.7246 19.8125 15.255C19.8125 14.7882 19.5062 14.3885 19.085 14.2471V12.0562C19.0943 11.3739 18.6389 10.7941 18.0079 10.6059L18.0079 10.6058L18.0001 10.6036C17.3607 10.4241 16.6751 10.6827 16.3165 11.2543L16.3152 11.2563C15.7722 12.1311 15.1776 13.1322 14.6664 14.0117C14.3855 14.4857 14.389 15.0761 14.6652 15.5513ZM10.5 8H19.5C20.4732 8 21.25 8.778 21.25 9.7275V17.91C21.25 18.8595 20.4732 19.6375 19.5 19.6375H18.9375C18.2166 19.6375 17.5113 19.9197 16.9951 20.4353C16.9947 20.4357 16.9943 20.4361 16.9939 20.4364L15.7137 21.7017C15.3235 22.0869 14.684 22.0869 14.2938 21.7017L13.0136 20.4364C13.0132 20.4361 13.0128 20.4357 13.0125 20.4354C12.4969 19.9203 11.7993 19.6375 11.07 19.6375H10.5C9.52677 19.6375 8.75 18.8595 8.75 17.91V9.7275C8.75 8.778 9.52677 8 10.5 8Z" fill="white" stroke="white"/>
<path d="M17.4675 14.685V12.48C17.025 13.2 16.5675 13.9725 16.155 14.6775H17.4675V14.685Z" fill="white"/>
</svg>
