<svg width="335" height="48" viewBox="0 0 335 48" fill="none" xmlns="http://www.w3.org/2000/svg">
<rect width="335" height="48" fill="url(#paint0_linear_71_1127)"/>
<path d="M111.7 18.832V30H109.46V22.208L106.596 30H104.644L101.78 22.24V30H99.524V18.832H102.26L105.652 27.232L108.98 18.832H111.7ZM120.639 18.544C121.695 18.544 122.649 18.7893 123.503 19.28C124.367 19.7707 125.044 20.4587 125.535 21.344C126.036 22.2187 126.287 23.2107 126.287 24.32C126.287 25.4293 126.036 26.4267 125.535 27.312C125.044 28.1973 124.367 28.8853 123.503 29.376C122.649 29.8667 121.695 30.112 120.639 30.112C119.583 30.112 118.623 29.8667 117.759 29.376C116.905 28.8853 116.228 28.1973 115.727 27.312C115.236 26.4267 114.991 25.4293 114.991 24.32C114.991 23.2107 115.236 22.2187 115.727 21.344C116.228 20.4587 116.905 19.7707 117.759 19.28C118.623 18.7893 119.583 18.544 120.639 18.544ZM120.639 20.624C119.977 20.624 119.396 20.7733 118.895 21.072C118.393 21.3707 117.999 21.8027 117.711 22.368C117.433 22.9227 117.295 23.5733 117.295 24.32C117.295 25.0667 117.433 25.7227 117.711 26.288C117.999 26.8427 118.393 27.2693 118.895 27.568C119.396 27.8667 119.977 28.016 120.639 28.016C121.3 28.016 121.881 27.8667 122.383 27.568C122.884 27.2693 123.273 26.8427 123.551 26.288C123.839 25.7227 123.983 25.0667 123.983 24.32C123.983 23.5733 123.839 22.9227 123.551 22.368C123.273 21.8027 122.884 21.3707 122.383 21.072C121.881 20.7733 121.3 20.624 120.639 20.624ZM137.343 26.912C137.343 27.488 137.199 28.0213 136.911 28.512C136.623 28.992 136.197 29.3813 135.631 29.68C135.066 29.968 134.378 30.112 133.567 30.112C132.767 30.112 132.053 29.9787 131.423 29.712C130.794 29.4347 130.287 29.04 129.903 28.528C129.53 28.016 129.317 27.4187 129.263 26.736H131.663C131.717 27.1947 131.898 27.5787 132.207 27.888C132.527 28.1867 132.949 28.336 133.471 28.336C133.941 28.336 134.298 28.2133 134.543 27.968C134.799 27.712 134.927 27.3867 134.927 26.992C134.927 26.64 134.826 26.352 134.623 26.128C134.421 25.8933 134.165 25.7067 133.855 25.568C133.546 25.4293 133.119 25.2693 132.575 25.088C131.871 24.8533 131.295 24.624 130.847 24.4C130.399 24.1653 130.015 23.8293 129.695 23.392C129.386 22.9547 129.231 22.384 129.231 21.68C129.231 20.7093 129.578 19.9467 130.271 19.392C130.975 18.8267 131.903 18.544 133.055 18.544C134.25 18.544 135.199 18.832 135.903 19.408C136.618 19.984 137.023 20.752 137.119 21.712H134.687C134.623 21.3067 134.453 20.976 134.175 20.72C133.898 20.4533 133.519 20.32 133.039 20.32C132.623 20.32 132.287 20.432 132.031 20.656C131.775 20.8693 131.647 21.184 131.647 21.6C131.647 21.9307 131.743 22.208 131.935 22.432C132.138 22.6453 132.389 22.8213 132.687 22.96C132.997 23.0987 133.413 23.2533 133.935 23.424C134.661 23.68 135.247 23.92 135.695 24.144C136.154 24.368 136.543 24.704 136.863 25.152C137.183 25.6 137.343 26.1867 137.343 26.912ZM148.285 18.704V20.496H145.165V30H142.909V20.496H139.805V18.704H148.285ZM158.468 25.808V30H156.212V18.704H160.324C161.657 18.704 162.66 19.024 163.332 19.664C164.014 20.304 164.356 21.1733 164.356 22.272C164.356 23.3493 164.004 24.208 163.3 24.848C162.606 25.488 161.614 25.808 160.324 25.808H158.468ZM160.084 24C161.406 24 162.068 23.424 162.068 22.272C162.068 21.7067 161.913 21.2747 161.604 20.976C161.294 20.6773 160.788 20.528 160.084 20.528H158.468V24H160.084ZM172.717 18.544C173.773 18.544 174.728 18.7893 175.581 19.28C176.445 19.7707 177.122 20.4587 177.613 21.344C178.114 22.2187 178.365 23.2107 178.365 24.32C178.365 25.4293 178.114 26.4267 177.613 27.312C177.122 28.1973 176.445 28.8853 175.581 29.376C174.728 29.8667 173.773 30.112 172.717 30.112C171.661 30.112 170.701 29.8667 169.837 29.376C168.984 28.8853 168.306 28.1973 167.805 27.312C167.314 26.4267 167.069 25.4293 167.069 24.32C167.069 23.2107 167.314 22.2187 167.805 21.344C168.306 20.4587 168.984 19.7707 169.837 19.28C170.701 18.7893 171.661 18.544 172.717 18.544ZM172.717 20.624C172.056 20.624 171.474 20.7733 170.973 21.072C170.472 21.3707 170.077 21.8027 169.789 22.368C169.512 22.9227 169.373 23.5733 169.373 24.32C169.373 25.0667 169.512 25.7227 169.789 26.288C170.077 26.8427 170.472 27.2693 170.973 27.568C171.474 27.8667 172.056 28.016 172.717 28.016C173.378 28.016 173.96 27.8667 174.461 27.568C174.962 27.2693 175.352 26.8427 175.629 26.288C175.917 25.7227 176.061 25.0667 176.061 24.32C176.061 23.5733 175.917 22.9227 175.629 22.368C175.352 21.8027 174.962 21.3707 174.461 21.072C173.96 20.7733 173.378 20.624 172.717 20.624ZM183.917 25.808V30H181.661V18.704H185.773C187.107 18.704 188.109 19.024 188.781 19.664C189.464 20.304 189.805 21.1733 189.805 22.272C189.805 23.3493 189.453 24.208 188.749 24.848C188.056 25.488 187.064 25.808 185.773 25.808H183.917ZM185.533 24C186.856 24 187.517 23.424 187.517 22.272C187.517 21.7067 187.363 21.2747 187.053 20.976C186.744 20.6773 186.237 20.528 185.533 20.528H183.917V24H185.533ZM195.047 18.704V25.328C195.047 26.2133 195.239 26.88 195.623 27.328C196.018 27.7653 196.583 27.984 197.319 27.984C198.044 27.984 198.599 27.7653 198.983 27.328C199.378 26.88 199.575 26.2133 199.575 25.328V18.704H201.815V25.328C201.815 26.3733 201.618 27.2587 201.223 27.984C200.839 28.6987 200.3 29.232 199.607 29.584C198.924 29.936 198.146 30.112 197.271 30.112C195.916 30.112 194.834 29.7067 194.023 28.896C193.212 28.0853 192.807 26.896 192.807 25.328V18.704H195.047ZM207.649 28.272H211.441V30H205.393V18.704H207.649V28.272ZM221.263 27.728H216.735L215.935 30H213.551L217.711 18.832H220.287L224.431 30H222.047L221.263 27.728ZM220.655 26.016L218.991 21.248L217.327 26.016H220.655ZM233.137 30L230.497 25.6H229.505V30H227.249V18.704H231.553C232.865 18.704 233.862 19.024 234.545 19.664C235.238 20.304 235.585 21.1467 235.585 22.192C235.585 23.0453 235.345 23.76 234.865 24.336C234.396 24.912 233.713 25.296 232.817 25.488L235.633 30H233.137ZM229.505 24.048H231.361C232.652 24.048 233.297 23.4773 233.297 22.336C233.297 21.792 233.137 21.3707 232.817 21.072C232.508 20.7627 232.022 20.608 231.361 20.608H229.505V24.048Z" fill="white"/>
<defs>
<linearGradient id="paint0_linear_71_1127" x1="113.716" y1="-17.1818" x2="194.206" y2="114.175" gradientUnits="userSpaceOnUse">
<stop stop-color="#5642CC"/>
<stop offset="1" stop-color="#7C6BE1"/>
</linearGradient>
</defs>
</svg>
