<svg width="30" height="30" viewBox="0 0 30 30" fill="none" xmlns="http://www.w3.org/2000/svg">
<rect width="30" height="30" rx="15" fill="#5E55D7"/>
<path d="M19.887 11.0772L19.8885 11.0848L19.8903 11.0924C19.9473 11.3396 19.975 11.6156 19.975 11.94V15.8025C19.975 16.8622 19.6747 17.5369 19.2272 17.9524C18.7731 18.3741 18.0883 18.6025 17.175 18.6025H10.5825C10.2737 18.6025 9.98903 18.575 9.73223 18.5172L9.71694 18.5138L9.70147 18.5113C9.55423 18.4877 9.40649 18.4455 9.26289 18.3934C8.79439 18.218 8.4365 17.9365 8.18985 17.5368C7.93945 17.131 7.78247 16.5685 7.78247 15.8025V11.94C7.78247 10.8803 8.08273 10.2057 8.5302 9.79016C8.98437 9.36843 9.66912 9.14001 10.5825 9.14001H17.1675C17.9419 9.14001 18.554 9.30474 18.9973 9.61105C19.4297 9.90984 19.7478 10.3749 19.887 11.0772ZM9.58497 16.0625C10.1686 16.0625 10.6475 15.5837 10.6475 15V12.75C10.6475 12.1664 10.1686 11.6875 9.58497 11.6875C9.00133 11.6875 8.52247 12.1664 8.52247 12.75V15C8.52247 15.5837 9.00133 16.0625 9.58497 16.0625ZM11.395 13.875C11.395 15.2462 12.5038 16.355 13.875 16.355C15.2461 16.355 16.355 15.2462 16.355 13.875C16.355 12.5039 15.2461 11.395 13.875 11.395C12.5038 11.395 11.395 12.5039 11.395 13.875ZM18.1575 16.0625C18.7411 16.0625 19.22 15.5837 19.22 15V12.75C19.22 12.1664 18.7411 11.6875 18.1575 11.6875C17.5738 11.6875 17.095 12.1664 17.095 12.75V15C17.095 15.5837 17.5738 16.0625 18.1575 16.0625Z" fill="white" stroke="white"/>
<path d="M22.7249 14.19V18.0525C22.7249 20.3625 21.4049 21.36 19.4174 21.36H12.8324C12.2699 21.36 11.7674 21.2775 11.3324 21.1125C10.9799 20.985 10.6724 20.7975 10.4249 20.5575C10.2899 20.43 10.3949 20.2275 10.5824 20.2275H17.1674C19.9424 20.2275 21.5924 18.5775 21.5924 15.81V11.94C21.5924 11.76 21.7949 11.6475 21.9224 11.7825C22.4324 12.3225 22.7249 13.11 22.7249 14.19Z" fill="white"/>
</svg>
