<svg width="30" height="30" viewBox="0 0 30 30" fill="none" xmlns="http://www.w3.org/2000/svg">
<rect width="30" height="30" rx="15" fill="#5E55D7"/>
<path d="M11.75 19.8225V19.3225H11.25C10.2386 19.3225 9.43466 18.9876 8.8848 18.4377C8.33494 17.8878 8 17.0839 8 16.0725V11.5725C8 10.5611 8.33494 9.75717 8.8848 9.20731C9.43466 8.65745 10.2386 8.32251 11.25 8.32251H18.75C19.7614 8.32251 20.5653 8.65745 21.1152 9.20731C21.6651 9.75717 22 10.5611 22 11.5725V16.0725C22 17.0839 21.6651 17.8878 21.1152 18.4377C20.5653 18.9876 19.7614 19.3225 18.75 19.3225H15.75H15.5989L15.4731 19.4062L12.1356 21.6262L12.1356 21.6262L12.1308 21.6294C11.9754 21.7354 11.75 21.6276 11.75 21.42V19.8225ZM16.2224 14.2535L16.2224 14.2535L16.2254 14.2515C16.2284 14.2495 16.2314 14.2474 16.2346 14.2453C16.4802 14.0791 17.3075 13.5193 17.3075 12.3975C17.3075 11.1239 16.2736 10.09 15 10.09C13.7264 10.09 12.6925 11.1239 12.6925 12.3975C12.6925 12.9812 13.1714 13.46 13.755 13.46C13.9104 13.46 14.0584 13.4261 14.1919 13.3652C14.0438 13.6325 13.9375 13.9646 13.9375 14.37V14.5275C13.9375 14.9254 14.16 15.2745 14.4865 15.4565C14.1568 15.6386 13.9375 15.9905 13.9375 16.3875C13.9375 16.9668 14.4045 17.45 15 17.45C15.5955 17.45 16.0625 16.9668 16.0625 16.3875C16.0625 15.9905 15.8432 15.6386 15.5134 15.4565C15.84 15.2745 16.0625 14.9254 16.0625 14.5275V14.376C16.0683 14.3701 16.0765 14.3623 16.088 14.3524C16.1167 14.3277 16.1591 14.2957 16.2224 14.2535ZM15.0144 12.5074C14.958 12.546 14.8746 12.6031 14.7789 12.6804C14.804 12.5903 14.8175 12.4954 14.8175 12.3975C14.8175 12.2987 14.9011 12.215 15 12.215C15.093 12.215 15.1726 12.2891 15.1816 12.3802C15.1765 12.3853 15.1697 12.3916 15.161 12.3992C15.134 12.4227 15.0941 12.4533 15.0351 12.4932L15.0351 12.4932L15.0317 12.4955C15.0263 12.4992 15.0205 12.5032 15.0144 12.5074Z" fill="white" stroke="white"/>
</svg>
