<svg width="30" height="30" viewBox="0 0 30 30" fill="none" xmlns="http://www.w3.org/2000/svg">
<circle cx="15" cy="15" r="15" fill="#5E55D7"/>
<path d="M21.075 12.915C19.7175 12.915 19.1625 11.955 19.8375 10.7775C20.2275 10.095 19.995 9.22495 19.3125 8.83495L18.015 8.09245C17.4225 7.73995 16.6575 7.94995 16.305 8.54245L16.2225 8.68495C15.5475 9.86245 14.4375 9.86245 13.755 8.68495L13.6725 8.54245C13.335 7.94995 12.57 7.73995 11.9775 8.09245L10.68 8.83495C9.9975 9.22495 9.765 10.1025 10.155 10.785C10.8375 11.955 10.2825 12.915 8.925 12.915C8.145 12.915 7.5 13.5525 7.5 14.34V15.66C7.5 16.44 8.1375 17.085 8.925 17.085C10.2825 17.085 10.8375 18.045 10.155 19.2225C9.765 19.905 9.9975 20.775 10.68 21.165L11.9775 21.9075C12.57 22.26 13.335 22.05 13.6875 21.4575L13.77 21.315C14.445 20.1375 15.555 20.1375 16.2375 21.315L16.32 21.4575C16.6725 22.05 17.4375 22.26 18.03 21.9075L19.3275 21.165C20.01 20.775 20.2425 19.8975 19.8525 19.2225C19.17 18.045 19.725 17.085 21.0825 17.085C21.8625 17.085 22.5075 16.4475 22.5075 15.66V14.34C22.5 13.56 21.8625 12.915 21.075 12.915ZM15 17.4375C13.6575 17.4375 12.5625 16.3425 12.5625 15C12.5625 13.6575 13.6575 12.5625 15 12.5625C16.3425 12.5625 17.4375 13.6575 17.4375 15C17.4375 16.3425 16.3425 17.4375 15 17.4375Z" fill="white"/>
</svg>
