<svg width="32" height="34" viewBox="0 0 32 34" fill="none" xmlns="http://www.w3.org/2000/svg">
<path d="M14.3271 1.62387C15.3388 0.944189 16.6612 0.944189 17.6729 1.62387L21.824 4.41254L26.3146 6.61313C27.4091 7.14948 28.0703 8.29471 27.9875 9.51074L27.648 14.5L27.9875 19.4893C28.0703 20.7053 27.4091 21.8505 26.3146 22.3869L21.824 24.5875L17.6729 27.3761C16.6612 28.0558 15.3388 28.0558 14.3271 27.3761L10.176 24.5875L5.68541 22.3869C4.59092 21.8505 3.92973 20.7053 4.01248 19.4893L4.352 14.5L4.01248 9.51074C3.92973 8.29471 4.59092 7.14948 5.68541 6.61313L10.176 4.41254L14.3271 1.62387Z" fill="#FBFCFD"/>
<g filter="url(#filter0_d_22_87)">
<path d="M14.4052 9.85748C15.1492 8.4094 17.2192 8.4094 17.9632 9.85748L18.1062 10.1359C18.3966 10.7011 18.9383 11.0947 19.5657 11.1962L19.8746 11.2462C21.4817 11.5063 22.1214 13.475 20.9741 14.63L20.7535 14.8521C20.3057 15.3029 20.0987 15.9398 20.196 16.5678L20.244 16.8771C20.4933 18.4859 18.8186 19.7026 17.3655 18.9684L17.0862 18.8272C16.519 18.5406 15.8494 18.5406 15.2822 18.8272L15.0029 18.9684C13.5498 19.7026 11.8752 18.4859 12.1244 16.8771L12.1724 16.5678C12.2697 15.9398 12.0627 15.3029 11.6149 14.8521L11.3943 14.63C10.247 13.475 10.8867 11.5063 12.4938 11.2462L12.8027 11.1962C13.4301 11.0947 13.9718 10.7011 14.2622 10.1359L14.4052 9.85748Z" fill="#D1A92B"/>
</g>
<defs>
<filter id="filter0_d_22_87" x="0.811218" y="2.77136" width="30.746" height="30.416" filterUnits="userSpaceOnUse" color-interpolation-filters="sRGB">
<feFlood flood-opacity="0" result="BackgroundImageFix"/>
<feColorMatrix in="SourceAlpha" type="matrix" values="0 0 0 0 0 0 0 0 0 0 0 0 0 0 0 0 0 0 127 0" result="hardAlpha"/>
<feOffset dy="4"/>
<feGaussianBlur stdDeviation="5"/>
<feComposite in2="hardAlpha" operator="out"/>
<feColorMatrix type="matrix" values="0 0 0 0 0.819608 0 0 0 0 0.662745 0 0 0 0 0.168627 0 0 0 0.48 0"/>
<feBlend mode="normal" in2="BackgroundImageFix" result="effect1_dropShadow_22_87"/>
<feBlend mode="normal" in="SourceGraphic" in2="effect1_dropShadow_22_87" result="shape"/>
</filter>
</defs>
</svg>
