<svg width="30" height="30" viewBox="0 0 30 30" fill="none" xmlns="http://www.w3.org/2000/svg">
<rect width="30" height="30" rx="15" fill="#5E55D7"/>
<path d="M22.5 22.5H7.5C7.1925 22.5 6.9375 22.245 6.9375 21.9375C6.9375 21.63 7.1925 21.375 7.5 21.375H22.5C22.8075 21.375 23.0625 21.63 23.0625 21.9375C23.0625 22.245 22.8075 22.5 22.5 22.5Z" fill="white"/>
<path d="M16.1875 22H13.8125V9C13.8125 8.64318 13.8875 8.39584 14.0029 8.24712C14.1004 8.12137 14.2775 8 14.6625 8H15.3375C15.7225 8 15.8996 8.12137 15.9971 8.24712C16.1125 8.39584 16.1875 8.64318 16.1875 9V22Z" fill="white" stroke="white"/>
<path d="M8.25 13.5V22.5H11.25V13.5C11.25 12.675 10.95 12 10.05 12H9.45C8.55 12 8.25 12.675 8.25 13.5Z" fill="white"/>
<path d="M18.75 17.25V22.5H21.75V17.25C21.75 16.425 21.45 15.75 20.55 15.75H19.95C19.05 15.75 18.75 16.425 18.75 17.25Z" fill="white"/>
</svg>
